HIERARCHY
ROOT Hips
{
	OFFSET 56.524502 -14.405314 85.825897
	CHANNELS 6 Xposition Yposition Zposition Xrotation Yrotation Zrotation
	JOINT spine
	{
		OFFSET 0.000000 -0.367607 6.392601
		CHANNELS 3 Xrotation Yrotation Zrotation
		JOINT spine1
		{
			OFFSET 0.000000 -0.000001 9.176109
			CHANNELS 3 Xrotation Yrotation Zrotation
			JOINT spine2
			{
				OFFSET 0.000000 -0.000002 8.792381
				CHANNELS 3 Xrotation Yrotation Zrotation
				JOINT Neck
				{
					OFFSET 0.000000 -1.076243 22.573692
					CHANNELS 3 Xrotation Yrotation Zrotation
					JOINT Head
					{
						OFFSET 0.000000 -0.000001 6.820114
						CHANNELS 3 Xrotation Yrotation Zrotation
						End Site
						{
							OFFSET 0.000000 5.444267 16.508499
						}
					}
				}
				JOINT RightShoulder
				{
					OFFSET -3.702209 0.515507 9.495087
					CHANNELS 3 Xrotation Yrotation Zrotation
					JOINT RightArm
					{
						OFFSET 0.000000 -0.000003 12.453697
						CHANNELS 3 Xrotation Yrotation Zrotation
						JOINT RightArmRoll
						{
							OFFSET 0.000000 -0.000001 6.286865
							CHANNELS 3 Xrotation Yrotation Zrotation
							JOINT RightForeArm
							{
								OFFSET 0.000000 -0.000003 18.311401
								CHANNELS 3 Xrotation Yrotation Zrotation
								JOINT RightForeArmRoll
								{
									OFFSET 0.000000 -0.000001 7.054825
									CHANNELS 3 Xrotation Yrotation Zrotation
									JOINT RightHand
									{
										OFFSET 0.000000 -0.000002 14.157501
										CHANNELS 3 Xrotation Yrotation Zrotation
										End Site
										{
											OFFSET 0.000000 0.000000 0.100006
										}
									}
								}
							}
						}
					}
				}
				JOINT LeftShoulder
				{
					OFFSET 3.702209 0.515507 9.495087
					CHANNELS 3 Xrotation Yrotation Zrotation
					JOINT LeftArm
					{
						OFFSET 0.000000 -0.000003 12.453697
						CHANNELS 3 Xrotation Yrotation Zrotation
						JOINT LeftArmRoll
						{
							OFFSET 0.000000 -0.000001 6.286865
							CHANNELS 3 Xrotation Yrotation Zrotation
							JOINT LeftForeArm
							{
								OFFSET 0.000000 -0.000003 18.311401
								CHANNELS 3 Xrotation Yrotation Zrotation
								JOINT LeftForeArmRoll
								{
									OFFSET 0.000000 -0.000001 7.054825
									CHANNELS 3 Xrotation Yrotation Zrotation
									JOINT LeftHand
									{
										OFFSET 0.000000 -0.000002 14.157501
										CHANNELS 3 Xrotation Yrotation Zrotation
										End Site
										{
											OFFSET 0.000000 0.000000 0.100006
										}
									}
								}
							}
						}
					}
				}
			}
		}
	}
	JOINT RightUpLeg
	{
		OFFSET -5.666161 0.871611 -1.039032
		CHANNELS 3 Xrotation Yrotation Zrotation
		JOINT RightUpLegRoll
		{
			OFFSET 0.000000 -0.000003 16.600502
			CHANNELS 3 Xrotation Yrotation Zrotation
			JOINT RightLeg
			{
				OFFSET 0.000000 0.000003 -20.557198
				CHANNELS 3 Xrotation Yrotation Zrotation
				JOINT RightLegRoll
				{
					OFFSET 0.000000 -0.000003 20.624397
					CHANNELS 3 Xrotation Yrotation Zrotation
					JOINT RightFoot
					{
						OFFSET 0.000000 -0.000003 17.166405
						CHANNELS 3 Xrotation Yrotation Zrotation
						JOINT RightToeBase
						{
							OFFSET 0.000000 -0.000003 14.350204
							CHANNELS 3 Xrotation Yrotation Zrotation
							End Site
							{
								OFFSET 0.006081 0.801060 6.949707
							}
						}
					}
				}
			}
		}
	}
	JOINT LeftUpLeg
	{
		OFFSET 5.666161 0.871611 -1.039032
		CHANNELS 3 Xrotation Yrotation Zrotation
		JOINT LeftUpLegRoll
		{
			OFFSET 0.000000 -0.000003 16.600601
			CHANNELS 3 Xrotation Yrotation Zrotation
			JOINT LeftLeg
			{
				OFFSET 0.000000 -0.000004 20.557098
				CHANNELS 3 Xrotation Yrotation Zrotation
				JOINT LeftLegRoll
				{
					OFFSET 0.000000 -0.000003 20.815094
					CHANNELS 3 Xrotation Yrotation Zrotation
					JOINT LeftFoot
					{
						OFFSET 0.000000 -0.000003 16.975693
						CHANNELS 3 Xrotation Yrotation Zrotation
						JOINT LeftToeBase
						{
							OFFSET 0.000000 -0.000003 14.350204
							CHANNELS 3 Xrotation Yrotation Zrotation
							End Site
							{
								OFFSET -0.027260 0.801060 6.949707
							}
						}
					}
				}
			}
		}
	}
}
MOTION
Frames: 4
Frame Time: 0.041667
55.550598 -14.274611 85.872902 -4.011442 2.294650 -0.390673 -1.003851 0.088129 -0.181632 1.986530 0.190031 -0.356949 3.631599 0.185679 -0.359082 7.325681 -4.817393 -1.112527 5.361860 1.407815 -0.597108 -2.945670 -65.078473 -4.084123 -50.199858 -115.195799 -43.120784 0.000001 -0.000001 -0.000004 3.896227 -13.697566 0.064558 -0.000007 -0.000001 -3.001420 -5.000218 -7.998741 0.000177 -1.092013 53.358814 0.592538 -35.570515 118.265900 30.700252 -0.000003 -0.000022 0.000005 1.487591 8.226635 0.491129 0.000003 -0.000004 3.010350 -5.000220 7.998940 -0.000135 1.932161 -177.471428 -0.600261 -179.999991 0.000005 -1.129995 174.850329 -1.825605 -0.484502 0.000003 0.000004 0.042731 68.899513 6.924197 2.043624 25.456959 -7.355615 0.000001 2.832979 172.933546 -1.336235 -0.000005 -0.000005 -1.132780 -6.564144 1.276023 0.584065 0.000003 0.000003 -0.045263 69.586869 -6.600433 -2.854960 25.457054 7.355618 -0.000169 
55.549500 -14.276310 85.828392 -4.011876 2.296635 -0.389904 -1.004542 0.087979 -0.181720 1.987050 0.190057 -0.358059 3.632109 0.185697 -0.360203 7.318057 -4.830043 -1.106429 5.394504 1.426885 -0.591633 -2.957139 -65.096156 -4.098974 -50.293422 -115.201440 -43.125801 -0.000000 -0.000002 -0.000004 3.829766 -13.643211 0.050357 -0.000005 -0.000001 -3.001420 -5.000218 -7.998741 0.000177 -1.084422 53.350587 0.582296 -35.586037 118.273933 30.657994 -0.000002 -0.000023 0.000005 1.467606 8.171824 0.494958 0.000002 -0.000004 3.010350 -5.000220 7.998941 -0.000135 1.930399 -177.472425 -0.597795 -179.999991 0.000006 -1.129995 174.848007 -1.831572 -0.484116 0.000003 0.000004 0.042731 68.898345 6.924205 2.043599 25.456955 -7.355616 0.000001 2.832585 172.930568 -1.341284 -0.000005 -0.000004 -1.132590 -6.567670 1.281308 0.584314 0.000003 0.000003 -0.045539 69.589232 -6.600586 -2.853547 25.457056 7.355619 -0.000169 
55.549400 -14.279114 85.836609 -4.012375 2.298608 -0.389036 -1.005264 0.087816 -0.181808 1.987601 0.190106 -0.359212 3.632669 0.185740 -0.361367 7.309515 -4.842643 -1.100149 5.428211 1.446119 -0.585991 -2.968293 -65.113853 -4.113461 -50.384496 -115.207396 -43.129909 -0.000001 -0.000001 -0.000004 3.764389 -13.589910 0.036551 -0.000006 -0.000001 -3.001420 -5.000220 -7.998741 0.000177 -1.076624 53.342046 0.571777 -35.600831 118.281760 30.615657 -0.000003 -0.000024 0.000005 1.448637 8.117300 0.498640 0.000002 -0.000004 3.010350 -5.000221 7.998941 -0.000135 1.928652 -177.474420 -0.595126 -179.999991 0.000005 -1.129995 174.845726 -1.837551 -0.484729 0.000004 0.000004 0.042731 68.897081 6.924199 2.043677 25.456959 -7.355616 0.000000 2.832353 172.928560 -1.346489 -0.000005 -0.000005 -1.132400 -6.571144 1.286902 0.584559 0.000002 0.000003 -0.045820 69.591609 -6.600776 -2.851941 25.457059 7.355617 -0.000169 
55.549301 -14.279814 85.864403 -4.012928 2.300572 -0.388099 -1.006013 0.087645 -0.181895 1.988191 0.190172 -0.360396 3.633259 0.185800 -0.362563 7.300326 -4.855202 -1.093745 5.462671 1.465488 -0.580242 -2.979189 -65.131448 -4.127662 -50.475054 -115.213202 -43.134636 -0.000002 -0.000002 -0.000004 3.699771 -13.537169 0.023041 -0.000004 -0.000001 -3.001421 -5.000221 -7.998741 0.000178 -1.068688 53.333525 0.561072 -35.614177 118.290298 30.572166 -0.000002 -0.000022 0.000004 1.430403 8.062970 0.502208 0.000003 -0.000004 3.010350 -5.000221 7.998940 -0.000135 1.926918 -177.475430 -0.592257 -179.999991 0.000005 -1.129995 174.843390 -1.844510 -0.484421 0.000003 0.000004 0.042731 68.895927 6.924205 2.043650 25.456957 -7.355615 0.000001 2.832259 172.925568 -1.351886 -0.000005 -0.000005 -1.132190 -6.574582 1.292725 0.584804 0.000003 0.000003 -0.046106 69.594102 -6.601001 -2.850233 25.457052 7.355618 -0.000169 
